<?xml version="1.0" encoding="UTF-8"?>
<!DOCTYPE svg PUBLIC "-//W3C//DTD SVG 1.1//EN" "http://www.w3.org/Graphics/SVG/1.1/DTD/svg11.dtd">
<!-- Creator: CorelDRAW 2019 (64-Bit) -->
<svg xmlns="http://www.w3.org/2000/svg" xml:space="preserve" width="176.447mm" height="176.469mm" version="1.1" style="shape-rendering:geometricPrecision; text-rendering:geometricPrecision; image-rendering:optimizeQuality; fill-rule:evenodd; clip-rule:evenodd"
viewBox="0 0 22075.01 22077.76"
 xmlns:xlink="http://www.w3.org/1999/xlink">
 <defs>
  <style type="text/css">
   <![CDATA[
    .fil0 {fill:white}
   ]]>
  </style>
 </defs>
 <g id="Layer_x0020_1">
  <metadata id="CorelCorpID_0Corel-Layer"/>
  <g id="_1780640780304">
   <path class="fil0" d="M-0 2206.77l2206.77 0 1471.76 3118.33c311.73,649.45 2456.29,5127.63 2456.29,5267.4 0,52.76 -185.34,374.86 -222.67,439.37 -84.91,146.74 -143.15,261.1 -233.19,428.83 -377.48,703.13 -1265.42,2066.99 -1265.42,2706.77 0,732.76 100.76,1196 644.03,1739.28 291.1,291.09 834.77,644.03 1386.2,644.03l13417.17 0 0 -2206.77 -12711.01 0c-535.14,0 -236.57,-529.55 -96.8,-758.83 226.52,-371.58 579.86,-1114.77 802.97,-1447.94 784.65,0 8190.82,55.74 8589.83,-16.58 788.22,-142.85 1291.13,-641.88 1620.64,-1248.16 86.29,-158.76 165.56,-305.68 251.62,-454.54l1793.05 -3238.39c95.22,-177.37 155.16,-287.54 249.24,-456.93l1265.62 -2309.34c283.43,-548.86 820.21,-1271.44 55.9,-1953.23 -239.81,-213.92 -452.02,-256.13 -893.92,-253.59l-16153.87 0.3c-16.58,-199.15 -649.41,-1409.91 -779.94,-1691.65 -67.58,-145.88 -154.43,-515.12 -323.44,-515.12l-3530.85 0 0 2206.77z"/>
   <path class="fil0" d="M4413.55 19816.82c0,673.87 236.77,1189.48 606.2,1556.44 1047.58,1040.55 2558.42,892.21 3392.18,-206.19 87.54,-115.32 135.07,-211.11 195.56,-334.06 769,-1562.78 -517.87,-3178.82 -1810.62,-3178.82 -778.39,0 -1193.27,116.56 -1754.8,672.66 -329.95,326.76 -628.52,849.62 -628.52,1489.98z"/>
   <path class="fil0" d="M15447.41 19816.82c0,1275.27 1054.93,2250.9 2030.23,2250.9 497.08,0 689.85,6.13 1148.59,-219.6 379.37,-186.67 568.38,-350.17 819.55,-681.05 87.55,-115.32 135.07,-211.11 195.57,-334.06 420.49,-854.54 228.39,-1904.41 -413.21,-2546.01 -160.81,-160.81 -399.65,-313.68 -601.91,-413.21 -613.16,-301.72 -1330.94,-301.72 -1944.11,0 -308.75,151.93 -372.47,221.59 -606.19,453.05 -329.96,326.76 -628.53,849.62 -628.53,1489.98z"/>
  </g>
 </g>
</svg>
