<?xml version="1.0" encoding="UTF-8" standalone="no"?><svg xmlns="http://www.w3.org/2000/svg" xmlns:xlink="http://www.w3.org/1999/xlink" contentScriptType="application/ecmascript" contentStyleType="text/css" height="363px" preserveAspectRatio="none" style="width:1026px;height:363px;" version="1.1" viewBox="0 0 1026 363" width="1026px" zoomAndPan="magnify"><defs><filter height="300%" id="frfcmrnh852rt" width="300%" x="-1" y="-1"><feGaussianBlur result="blurOut" stdDeviation="2.0"/><feColorMatrix in="blurOut" result="blurOut2" type="matrix" values="0 0 0 0 0 0 0 0 0 0 0 0 0 0 0 0 0 0 .4 0"/><feOffset dx="4.0" dy="4.0" in="blurOut2" result="blurOut3"/><feBlend in="SourceGraphic" in2="blurOut3" mode="normal"/></filter></defs><g><!--MD5=[592653a368d31c473470e5dfcf8d8b09]
entity Responsabile Reparto--><ellipse cx="271" cy="17.5" fill="#FEFECE" filter="url(#frfcmrnh852rt)" rx="8" ry="8" style="stroke: #A80036; stroke-width: 1.5;"/><path d="M271,25.5 L271,52.5 M258,33.5 L284,33.5 M271,52.5 L258,67.5 M271,52.5 L284,67.5 " fill="none" filter="url(#frfcmrnh852rt)" style="stroke: #A80036; stroke-width: 1.5;"/><text fill="#000000" font-family="sans-serif" font-size="14" lengthAdjust="spacingAndGlyphs" textLength="147" x="197.5" y="87.9659">Responsabile Reparto</text><ellipse cx="84.076" cy="195.0152" fill="#FEFECE" filter="url(#frfcmrnh852rt)" rx="78.076" ry="18.0152" style="stroke: #A80036; stroke-width: 1.5;"/><text fill="#000000" font-family="sans-serif" font-size="14" lengthAdjust="spacingAndGlyphs" textLength="116" x="26.076" y="201.0492">Gestione Prodotti</text><ellipse cx="270.913" cy="195.1826" fill="#FEFECE" filter="url(#frfcmrnh852rt)" rx="73.913" ry="17.1826" style="stroke: #A80036; stroke-width: 1.5;"/><text fill="#000000" font-family="sans-serif" font-size="14" lengthAdjust="spacingAndGlyphs" textLength="105" x="218.413" y="201.2166">Controllo Spese</text><!--MD5=[51dc34f6dea4a16405cfeb18503da005]
entity Utente--><ellipse cx="403" cy="162.5" fill="#FEFECE" filter="url(#frfcmrnh852rt)" rx="8" ry="8" style="stroke: #A80036; stroke-width: 1.5;"/><path d="M403,170.5 L403,197.5 M390,178.5 L416,178.5 M403,197.5 L390,212.5 M403,197.5 L416,212.5 " fill="none" filter="url(#frfcmrnh852rt)" style="stroke: #A80036; stroke-width: 1.5;"/><text fill="#000000" font-family="sans-serif" font-size="14" lengthAdjust="spacingAndGlyphs" textLength="45" x="380.5" y="232.9659">Utente</text><ellipse cx="394.0826" cy="334.3165" fill="#FEFECE" filter="url(#frfcmrnh852rt)" rx="72.0826" ry="16.8165" style="stroke: #A80036; stroke-width: 1.5;"/><text fill="#000000" font-family="sans-serif" font-size="14" lengthAdjust="spacingAndGlyphs" textLength="100" x="344.0826" y="340.3505">Autenticazione</text><!--MD5=[d9f75b78703733959770a1bae7362de0]
entity Cliente--><ellipse cx="592" cy="17.5" fill="#FEFECE" filter="url(#frfcmrnh852rt)" rx="8" ry="8" style="stroke: #A80036; stroke-width: 1.5;"/><path d="M592,25.5 L592,52.5 M579,33.5 L605,33.5 M592,52.5 L579,67.5 M592,52.5 L605,67.5 " fill="none" filter="url(#frfcmrnh852rt)" style="stroke: #A80036; stroke-width: 1.5;"/><text fill="#000000" font-family="sans-serif" font-size="14" lengthAdjust="spacingAndGlyphs" textLength="47" x="568.5" y="87.9659">Cliente</text><ellipse cx="539.0538" cy="194.9831" fill="#FEFECE" filter="url(#frfcmrnh852rt)" rx="68.0538" ry="16.4831" style="stroke: #A80036; stroke-width: 1.5;"/><text fill="#000000" font-family="sans-serif" font-size="14" lengthAdjust="spacingAndGlyphs" textLength="92" x="493.0538" y="201.017">Registrazione</text><ellipse cx="713.1492" cy="195.0298" fill="#FEFECE" filter="url(#frfcmrnh852rt)" rx="70.6492" ry="16.5298" style="stroke: #A80036; stroke-width: 1.5;"/><text fill="#000000" font-family="sans-serif" font-size="14" lengthAdjust="spacingAndGlyphs" textLength="96" x="665.1492" y="201.0638">Effettua spesa</text><ellipse cx="581.9171" cy="334.4834" fill="#FEFECE" filter="url(#frfcmrnh852rt)" rx="80.4171" ry="18.4834" style="stroke: #A80036; stroke-width: 1.5;"/><text fill="#000000" font-family="sans-serif" font-size="14" lengthAdjust="spacingAndGlyphs" textLength="122" x="520.9171" y="340.5174">Seleziona prodotti</text><ellipse cx="772.9062" cy="334.4812" fill="#FEFECE" filter="url(#frfcmrnh852rt)" rx="75.4062" ry="17.4812" style="stroke: #A80036; stroke-width: 1.5;"/><text fill="#000000" font-family="sans-serif" font-size="14" lengthAdjust="spacingAndGlyphs" textLength="109" x="718.4062" y="340.5152">Conferma spesa</text><ellipse cx="931.1565" cy="194.8313" fill="#FEFECE" filter="url(#frfcmrnh852rt)" rx="74.6565" ry="17.3313" style="stroke: #A80036; stroke-width: 1.5;"/><text fill="#000000" font-family="sans-serif" font-size="14" lengthAdjust="spacingAndGlyphs" textLength="107" x="877.6565" y="200.8653">Gestione profilo</text><ellipse cx="949.9325" cy="334.4831" fill="#FEFECE" filter="url(#frfcmrnh852rt)" rx="65.9325" ry="16.4831" style="stroke: #A80036; stroke-width: 1.5;"/><text fill="#000000" font-family="sans-serif" font-size="14" lengthAdjust="spacingAndGlyphs" textLength="89" x="905.4325" y="340.517">Storico spese</text><!--MD5=[d41c8960427293d6d69ff460910e7eae]
link Responsabile Reparto to Gestione Prodotti--><path d="M217.16,92.17 C181.93,119.11 137.48,153.11 109.89,174.2 " fill="none" id="Responsabile Reparto-&gt;Gestione Prodotti" style="stroke: #A80036; stroke-width: 1.0;"/><polygon fill="#A80036" points="105.61,177.47,115.1869,175.1714,109.579,174.429,110.3213,168.8211,105.61,177.47" style="stroke: #A80036; stroke-width: 1.0;"/><!--MD5=[b4289be61e063dd7d66cffb71f8e9533]
link Responsabile Reparto to Controllo Spese--><path d="M271,92.36 C271,118.67 271,151.65 271,172.77 " fill="none" id="Responsabile Reparto-&gt;Controllo Spese" style="stroke: #A80036; stroke-width: 1.0;"/><polygon fill="#A80036" points="271,177.88,275,168.88,271,172.88,267,168.88,271,177.88" style="stroke: #A80036; stroke-width: 1.0;"/><!--MD5=[77620fcb962036f3a8d423c2b1ca01ed]
link Responsabile Reparto to Utente--><path d="M309.18,92.36 C330.83,115.81 357.36,144.56 376.68,165.49 " fill="none" id="Responsabile Reparto-&gt;Utente" style="stroke: #A80036; stroke-width: 1.0;"/><polygon fill="#A80036" points="380.2,169.3,377.0196,159.9788,376.8027,165.6315,371.15,165.4145,380.2,169.3" style="stroke: #A80036; stroke-width: 1.0;"/><!--MD5=[257677dc1c008ce17f24131afc5f9137]
link Utente to Autenticazione--><path d="M400.3,237.25 C398.68,261.94 396.7,292.3 395.39,312.23 " fill="none" id="Utente-&gt;Autenticazione" style="stroke: #A80036; stroke-width: 1.0;"/><polygon fill="#A80036" points="395.06,317.32,399.6432,308.6025,395.3888,312.3308,391.6605,308.0764,395.06,317.32" style="stroke: #A80036; stroke-width: 1.0;"/><!--MD5=[6e9c1724b4b3819b431328881e3dc639]
link Cliente to Utente--><path d="M568.1,67.94 C540.17,87.88 492.73,122.17 453,153 C445.37,158.92 437.22,165.5 429.76,171.62 " fill="none" id="Cliente-&gt;Utente" style="stroke: #A80036; stroke-width: 1.0;"/><polygon fill="#A80036" points="425.69,174.96,435.1823,172.3338,429.5521,171.7845,430.1014,166.1543,425.69,174.96" style="stroke: #A80036; stroke-width: 1.0;"/><!--MD5=[aa5362c085f0d6e61ed387bf985f17dc]
link Cliente to Registrazione--><path d="M576.67,92.36 C566.82,118.94 554.45,152.31 546.63,173.4 " fill="none" id="Cliente-&gt;Registrazione" style="stroke: #A80036; stroke-width: 1.0;"/><polygon fill="#A80036" points="544.84,178.23,551.7077,171.1706,546.5705,173.539,544.2021,168.4018,544.84,178.23" style="stroke: #A80036; stroke-width: 1.0;"/><!--MD5=[5df5a85a644d77af362eb1076e416bdc]
link Cliente to Effettua spesa--><path d="M615.62,78.91 C639.41,107.03 675.52,149.7 696.43,174.42 " fill="none" id="Cliente-&gt;Effettua spesa" style="stroke: #A80036; stroke-width: 1.0;"/><polygon fill="#A80036" points="699.9,178.52,697.1385,169.0662,696.6696,174.7036,691.0323,174.2348,699.9,178.52" style="stroke: #A80036; stroke-width: 1.0;"/><!--MD5=[1f6dd169bd04e74a094f1035ef423f7f]
link Effettua spesa to Seleziona prodotti--><path d="M698.48,211.24 C675.02,235.87 628.72,284.46 602.1,312.4 " fill="none" id="Effettua spesa-&gt;Seleziona prodotti" style="stroke: #A80036; stroke-width: 1.0; stroke-dasharray: 7.0,7.0;"/><polygon fill="#A80036" points="598.64,316.03,607.7364,312.2544,602.0815,312.4029,601.933,306.748,598.64,316.03" style="stroke: #A80036; stroke-width: 1.0;"/><text fill="#000000" font-family="sans-serif" font-size="13" lengthAdjust="spacingAndGlyphs" textLength="43" x="645" y="281.897">include</text><!--MD5=[6bc5564e3e6fbdfb6df2598a948e6a28]
link Effettua spesa to Conferma spesa--><path d="M719.77,211.51 C730.54,236.2 751.63,284.52 763.78,312.37 " fill="none" id="Effettua spesa-&gt;Conferma spesa" style="stroke: #A80036; stroke-width: 1.0; stroke-dasharray: 7.0,7.0;"/><polygon fill="#A80036" points="765.79,316.98,765.8585,307.1314,763.7912,312.3969,758.5256,310.3295,765.79,316.98" style="stroke: #A80036; stroke-width: 1.0;"/><text fill="#000000" font-family="sans-serif" font-size="13" lengthAdjust="spacingAndGlyphs" textLength="43" x="753" y="281.897">include</text><!--MD5=[d8d1d3f2841929fb269a643c884aaecb]
link Cliente to Gestione profilo--><path d="M615.57,60.94 C672.98,85.16 820.53,147.4 891.59,177.38 " fill="none" id="Cliente-&gt;Gestione profilo" style="stroke: #A80036; stroke-width: 1.0;"/><polygon fill="#A80036" points="896.58,179.48,889.8375,172.3009,891.9718,177.5397,886.7331,179.674,896.58,179.48" style="stroke: #A80036; stroke-width: 1.0;"/><!--MD5=[f5a6274ae1815ddc2660f5890ce2a092]
link Gestione profilo to Storico spese--><path d="M933.29,212.59 C936.75,237.63 943.31,285.08 947.1,312.5 " fill="none" id="Gestione profilo-&gt;Storico spese" style="stroke: #A80036; stroke-width: 1.0; stroke-dasharray: 7.0,7.0;"/><polygon fill="#A80036" points="947.82,317.7,950.5491,308.2368,947.1349,312.7472,942.6245,309.333,947.82,317.7" style="stroke: #A80036; stroke-width: 1.0;"/><text fill="#000000" font-family="sans-serif" font-size="13" lengthAdjust="spacingAndGlyphs" textLength="43" x="945" y="281.897">include</text><!--MD5=[b9e0fa58ccd569476d4f121e63190f32]
@startuml

:Responsabile Reparto: - -> (Gestione Prodotti)
:Responsabile Reparto: - -> (Controllo Spese)
:Responsabile Reparto: - -> Utente
Utente - -> (Autenticazione)
Cliente - -> Utente
Cliente - -> (Registrazione)
Cliente - -> (Effettua spesa)
(Effettua spesa) ..> (Seleziona prodotti) : include
(Effettua spesa) ..> (Conferma spesa) : include
Cliente - -> (Gestione profilo)
(Gestione profilo) ..> (Storico spese) : include

@enduml

PlantUML version 1.2020.07(Sun Apr 19 13:42:40 CEST 2020)
(GPL source distribution)
Java Runtime: OpenJDK Runtime Environment
JVM: OpenJDK 64-Bit Server VM
Java Version: 14.0.1+7
Operating System: Linux
Default Encoding: UTF-8
Language: en
Country: US
--></g></svg>